<?xml version="1.0" encoding="UTF-8"?>
<svg id="Layer_1" xmlns="http://www.w3.org/2000/svg" version="1.1" viewBox="0 0 256 95.9">
  <!-- Generator: Adobe Illustrator 29.3.0, SVG Export Plug-In . SVG Version: 2.1.0 Build 2)  -->
  <defs>
    <style>
      .st0 {
        fill: #65e18b;
      }
    </style>
  </defs>
  <path class="st0" d="M192,95.9c-23,0-33-23.2-41.8-43.7-6.5-15.2-13.2-30.8-22.2-30.8s-15.7,15.7-22.2,30.8c-8.8,20.5-18.8,43.7-41.8,43.7s-33-23.2-41.8-43.7C15.7,37,9,21.3,0,21.3V0c23,0,33,23.2,41.8,43.7,6.5,15.2,13.2,30.8,22.2,30.8s15.7-15.7,22.2-30.8C95,23.2,105,0,128,0s33,23.2,41.8,43.7c6.5,15.2,13.2,30.8,22.2,30.8s15.7-15.7,22.2-30.8C223,23.2,233,0,256,0v21.3c-9,0-15.7,15.7-22.2,30.8-8.8,20.5-18.8,43.7-41.8,43.7Z"/>
</svg>